<svg xmlns="http://www.w3.org/2000/svg" width="64" height="64" viewBox="0 0 64 64" role="img" aria-label="GOOGL ticker icon">
  <defs>
    <filter id="shadow" x="-30%" y="-30%" width="160%" height="160%">
      <feDropShadow dx="0" dy="6" stdDeviation="5" flood-color="#000000" flood-opacity="0.30"/>
    </filter>
  </defs>
  <circle cx="32" cy="32" r="30" fill="#f8fafc" filter="url(#shadow)"/>
  <circle cx="32" cy="32" r="29" fill="none" stroke="#ffffff" stroke-opacity="0.16" stroke-width="1"/>
  
<path d="M48 32 C48 42, 41 50, 32 50 C22 50, 14 42, 14 32 C14 22, 22 14, 32 14 C38 14, 42 16, 45 19" fill="none" stroke="#4285f4" stroke-width="7" stroke-linecap="round"/>
<path d="M45 19 L39 25" stroke="#ea4335" stroke-width="7" stroke-linecap="round"/>
<path d="M32 50 C25 50, 19 46, 16 40" stroke="#34a853" stroke-width="7" stroke-linecap="round"/>
<path d="M16 40 C13 33, 14 27, 18 21" stroke="#fbbc05" stroke-width="7" stroke-linecap="round"/>
<path d="M34 32 H50" stroke="#4285f4" stroke-width="7" stroke-linecap="round"/>

  
</svg>
